<svg xmlns="http://www.w3.org/2000/svg" xmlns:xlink="http://www.w3.org/1999/xlink" width="550" height="740" style="width:100%;height:100%;transform:translate3d(0,0,0);content-visibility:visible"><defs><clipPath id="e"><path d="M0 0h550v740H0z"/></clipPath><clipPath id="h"><path d="M0 0h565v726H0z"/></clipPath><clipPath id="n"><path d="M0 0h565v726H0z"/></clipPath><clipPath id="m"><path d="M0 0h565v726H0z"/></clipPath><clipPath id="l"><path d="M0 0h565v726H0z"/></clipPath><clipPath id="k"><path d="M0 0h565v726H0z"/></clipPath><clipPath id="j"><path d="M0 0h565v726H0z"/></clipPath><clipPath id="i"><path d="M0 0h565v726H0z"/></clipPath><mask id="p" mask-type="alpha"><use xlink:href="#a"/></mask><mask id="o" mask-type="alpha"><use xlink:href="#b"/></mask><mask id="g" mask-type="alpha"><use xlink:href="#c"/></mask><mask id="f" mask-type="alpha"><use xlink:href="#d"/></mask><g id="a" style="display:block"><path fill="#FFBB25" d="m389.29 537.93 78.37 48.81.01-.01c14.6 9.1 13.86 30.61-1.34 38.68l-81.84 43.45c-15.21 8.07-33.44-3.36-32.79-20.56l3.47-92.26c.64-17.13 19.56-27.18 34.12-18.11z"/><path fill-opacity="0" stroke="#202124" stroke-linecap="round" stroke-linejoin="round" stroke-width="1.5" d="m389.29 537.93 78.37 48.81.01-.01c14.6 9.1 13.86 30.61-1.34 38.68l-81.84 43.45c-15.21 8.07-33.44-3.36-32.79-20.56l3.47-92.26c.64-17.13 19.56-27.18 34.12-18.11z"/></g><g id="b" style="display:block"><path fill="#1FB254" d="M338.59 448.29H215.41c-16.491 0-29.86 13.367-29.86 29.855S198.919 508 215.41 508h123.18c16.491 0 29.86-13.367 29.86-29.855s-13.369-29.855-29.86-29.855z"/><path fill-opacity="0" stroke="#202124" stroke-linecap="round" stroke-linejoin="round" stroke-width="1.5" d="M338.59 448.29H215.41c-16.491 0-29.86 13.367-29.86 29.855S198.919 508 215.41 508h123.18c16.491 0 29.86-13.367 29.86-29.855s-13.369-29.855-29.86-29.855z"/></g><g id="d" style="display:block"><path fill="#007CF3" d="m105.548 638.712 135.764-17.44-17.44-135.764-135.764 17.44 17.44 135.764z"/><path fill-opacity="0" stroke="#202124" stroke-linecap="round" stroke-linejoin="round" stroke-width="1.5" d="m105.548 638.712 135.764-17.44-17.44-135.764-135.764 17.44 17.44 135.764z"/></g><path id="c" fill="#FFF" d="M108.941-210.837v405.099h-217.882v-405.099h217.882z" style="display:block" transform="translate(274.5 257.363)"/></defs><g clip-path="url(#e)"><g style="display:block"><path fill="#007CF3" d="m105.548 638.712 135.764-17.44-17.44-135.764-135.764 17.44 17.44 135.764z"/><path fill="none" stroke="#202124" stroke-linecap="round" stroke-linejoin="round" stroke-width="1.5" d="m105.548 638.712 135.764-17.44-17.44-135.764-135.764 17.44 17.44 135.764z"/></g><g style="display:block"><path fill="#202124" d="M378.01 258.62H170.93c-8.936 0-16.18 7.244-16.18 16.18v284.83c0 8.936 7.244 16.18 16.18 16.18h207.08c8.936 0 16.18-7.244 16.18-16.18V274.8c0-8.936-7.244-16.18-16.18-16.18z"/><path fill="none" stroke="#202124" stroke-linecap="round" stroke-linejoin="round" stroke-width="1.5" d="M378.01 258.62H170.93c-8.936 0-16.18 7.244-16.18 16.18v284.83c0 8.936 7.244 16.18 16.18 16.18h207.08c8.936 0 16.18-7.244 16.18-16.18V274.8c0-8.936-7.244-16.18-16.18-16.18z"/></g><g mask="url(#f)" style="display:block"><path fill="#000111" d="m77.66 578.76 76.09-27.3 61.68 52.26-14.41 79.54-76.09 27.29-61.68-52.25 14.41-79.54z"/><path fill="none" stroke="#202124" stroke-linecap="round" stroke-linejoin="round" stroke-width="1.5" d="m77.66 578.76 76.09-27.3 61.68 52.26-14.41 79.54-76.09 27.29-61.68-52.25 14.41-79.54z"/></g><g style="display:block"><path fill="#FFF" d="m57.66 550.76 76.09-27.3 61.68 52.26-14.41 79.54-76.09 27.29-61.68-52.25 14.41-79.54z"/><path fill="none" stroke="#202124" stroke-linecap="round" stroke-linejoin="round" stroke-width="1.5" d="m57.66 550.76 76.09-27.3 61.68 52.26-14.41 79.54-76.09 27.29-61.68-52.25 14.41-79.54z"/></g><g style="display:block"><path fill="#FFF" d="M119.34 648.01c24.853 0 45-20.147 45-45s-20.147-45-45-45-45 20.147-45 45 20.147 45 45 45z"/><path fill="none" stroke="#202124" stroke-linecap="round" stroke-linejoin="round" stroke-width="1.5" d="M119.34 648.01c24.853 0 45-20.147 45-45s-20.147-45-45-45-45 20.147-45 45 20.147 45 45 45z"/></g><path fill="none" stroke="#202124" stroke-linecap="round" stroke-linejoin="round" stroke-width="3" d="M3.725-5.35h-12.8v10.7h12.8c2.95 0 5.35-2.4 5.35-5.35 0-2.95-2.4-5.35-5.35-5.35z" style="display:block" transform="rotate(-19.73 1778.127 -38.897)"/><path fill="none" stroke="#202124" stroke-linecap="round" stroke-linejoin="round" stroke-width="3" d="M3.725-5.35h-12.8v10.7h12.8c2.95 0 5.35-2.4 5.35-5.35 0-2.95-2.4-5.35-5.35-5.35z" style="display:block" transform="rotate(-19.73 1808.877 -44.264)"/><path fill="none" stroke="#202124" stroke-linecap="round" stroke-linejoin="round" stroke-width="3" d="m-1.165-3.25 2.33 6.5" style="display:block" transform="translate(110.635 591.101)"/><path fill="none" stroke="#202124" stroke-linecap="round" stroke-linejoin="round" stroke-width="3" d="m-1.165-3.25 2.33 6.5" style="display:block" transform="translate(118.495 588.28)"/><path fill="none" stroke="#202124" stroke-linecap="round" stroke-linejoin="round" stroke-width="3" d="m-1.165-3.25 2.33 6.5" style="display:block" transform="translate(120.185 617.74)"/><path fill="none" stroke="#202124" stroke-linecap="round" stroke-linejoin="round" stroke-width="3" d="m-1.17-3.25 2.34 6.5" style="display:block" transform="translate(128.05 614.92)"/><g style="display:block"><path fill="#FFBB25" d="m389.29 537.93 78.37 48.81.01-.01c14.6 9.1 13.86 30.61-1.34 38.68l-81.84 43.45c-15.21 8.07-33.44-3.36-32.79-20.56l3.47-92.26c.64-17.13 19.56-27.18 34.12-18.11z"/><path fill="none" stroke="#202124" stroke-linecap="round" stroke-linejoin="round" stroke-width="1.5" d="m389.29 537.93 78.37 48.81.01-.01c14.6 9.1 13.86 30.61-1.34 38.68l-81.84 43.45c-15.21 8.07-33.44-3.36-32.79-20.56l3.47-92.26c.64-17.13 19.56-27.18 34.12-18.11z"/></g><g style="display:block"><path fill="#FFF" d="m499.233 152.752-145.384-74.3c-7.121-3.64-15.844-.817-19.483 6.304l-48.967 95.812c-3.64 7.121-.817 15.844 6.304 19.484l145.384 74.3c7.121 3.64 15.844.817 19.483-6.304l48.967-95.812c3.64-7.121.817-15.844-6.304-19.484z"/><path fill="none" stroke="#202124" stroke-linecap="round" stroke-linejoin="round" stroke-width="1.5" d="m499.233 152.752-145.384-74.3c-7.121-3.64-15.844-.817-19.483 6.304l-48.967 95.812c-3.64 7.121-.817 15.844 6.304 19.484l145.384 74.3c7.121 3.64 15.844.817 19.483-6.304l48.967-95.812c3.64-7.121.817-15.844-6.304-19.484z"/></g><g style="display:block"><path fill="#FFF" d="m499.233 152.752-145.384-74.3c-7.121-3.64-15.844-.817-19.483 6.304l-48.967 95.812c-3.64 7.121-.817 15.844 6.304 19.484l145.384 74.3c7.121 3.64 15.844.817 19.483-6.304l48.967-95.812c3.64-7.121.817-15.844-6.304-19.484z"/><path fill="none" stroke="#202124" stroke-linecap="round" stroke-linejoin="round" stroke-width="1.5" d="m499.233 152.752-145.384-74.3c-7.121-3.64-15.844-.817-19.483 6.304l-48.967 95.812c-3.64 7.121-.817 15.844 6.304 19.484l145.384 74.3c7.121 3.64 15.844.817 19.483-6.304l48.967-95.812c3.64-7.121.817-15.844-6.304-19.484z"/></g><g style="display:block"><path fill="#FFF" d="m469.149 200.618-17.747-9.07a6.89 6.89 0 0 0-9.27 3l-4.629 9.056a6.89 6.89 0 0 0 3 9.27l17.747 9.07a6.89 6.89 0 0 0 9.27-3l4.629-9.055a6.89 6.89 0 0 0-3-9.271z"/><path fill="none" stroke="#202124" stroke-linecap="round" stroke-linejoin="round" stroke-width="1.5" d="m469.149 200.618-17.747-9.07a6.89 6.89 0 0 0-9.27 3l-4.629 9.056a6.89 6.89 0 0 0 3 9.27l17.747 9.07a6.89 6.89 0 0 0 9.27-3l4.629-9.055a6.89 6.89 0 0 0-3-9.271z"/></g><g style="display:block"><path fill="#FFF" d="m443.32 214.321 10.89-21.33"/><path fill="none" stroke="#202124" stroke-linecap="round" stroke-linejoin="round" stroke-width="1.5" d="m443.32 214.321 10.89-21.33"/></g><g style="display:block"><path fill="#FFF" d="m455.42 220.501 10.9-21.32"/><path fill="none" stroke="#202124" stroke-linecap="round" stroke-linejoin="round" stroke-width="1.5" d="m455.42 220.501 10.9-21.32"/></g><g style="display:block"><path fill="#FFF" d="m441.63 195.521 8.95 4.58"/><path fill="none" stroke="#202124" stroke-linecap="round" stroke-linejoin="round" stroke-width="1.5" d="m441.63 195.521 8.95 4.58"/></g><g style="display:block"><path fill="#FFF" d="m437.99 202.631 8.96 4.58"/><path fill="none" stroke="#202124" stroke-linecap="round" stroke-linejoin="round" stroke-width="1.5" d="m437.99 202.631 8.96 4.58"/></g><g style="display:block"><path fill="#FFF" d="m462.68 206.29 8.96 4.58"/><path fill="none" stroke="#202124" stroke-linecap="round" stroke-linejoin="round" stroke-width="1.5" d="m462.68 206.29 8.96 4.58"/></g><g style="display:block"><path fill="#FFF" d="m459.05 213.401 8.96 4.57"/><path fill="none" stroke="#202124" stroke-linecap="round" stroke-linejoin="round" stroke-width="1.5" d="m459.05 213.401 8.96 4.57"/></g><g style="display:block"><path fill="#202124" d="m427.57 269.51-17.11-51.54-33.3 25.77 50.41 25.77z"/><path fill="none" stroke="#202124" stroke-linecap="round" stroke-linejoin="round" stroke-width="1.5" d="m427.57 269.51-17.11-51.54-33.3 25.77 50.41 25.77z"/></g><g style="display:block"><path fill="#1FB254" d="M68.82 256.41c-7.15-1.88-10.94-9.71-8-16.49l62.06-143.15c2.95-6.78 11.25-9.37 17.51-5.43 37.4 23.51 53.08 71.43 34.96 113.21-18.11 41.78-63.8 63.09-106.53 51.86z"/><path fill="none" stroke="#202124" stroke-linecap="round" stroke-linejoin="round" stroke-width="1.5" d="M68.82 256.41c-7.15-1.88-10.94-9.71-8-16.49l62.06-143.15c2.95-6.78 11.25-9.37 17.51-5.43 37.4 23.51 53.08 71.43 34.96 113.21-18.11 41.78-63.8 63.09-106.53 51.86z"/></g><g style="display:block"><path fill="#EA3323" d="M450.58 420.02c31.199 0 56.49-25.291 56.49-56.49s-25.291-56.49-56.49-56.49-56.49 25.291-56.49 56.49 25.291 56.49 56.49 56.49z"/><path fill="none" stroke="#202124" stroke-linecap="round" stroke-linejoin="round" stroke-width="1.5" d="M450.58 420.02c31.199 0 56.49-25.291 56.49-56.49s-25.291-56.49-56.49-56.49-56.49 25.291-56.49 56.49 25.291 56.49 56.49 56.49z"/></g><g style="display:block"><path fill="#FFF" d="M400.175 189.261h-251.19c-9.375 0-16.975 7.6-16.975 16.975v343.768c0 9.375 7.6 16.975 16.975 16.975h251.19c9.375 0 16.975-7.6 16.975-16.975V206.236c0-9.375-7.6-16.975-16.975-16.975z"/><path fill="none" stroke="#202124" stroke-linecap="round" stroke-linejoin="round" stroke-width="1.5737400000000001" d="M400.175 189.261h-251.19c-9.375 0-16.975 7.6-16.975 16.975v343.768c0 9.375 7.6 16.975 16.975 16.975h251.19c9.375 0 16.975-7.6 16.975-16.975V206.236c0-9.375-7.6-16.975-16.975-16.975z"/></g><g mask="url(#g)" style="display:block"><g clip-path="url(#h)" transform="translate(-7.5 7)"><g clip-path="url(#n)" style="display:block" transform="translate(0 134.08)"><path fill="#FFF" d="M0-55.079c30.398 0 55.079 24.68 55.079 55.079 0 30.398-24.68 55.079-55.079 55.079-30.398 0-55.079-24.68-55.079-55.079 0-30.398 24.68-55.079 55.079-55.079z" style="display:block" transform="matrix(1.04 0 0 1.04 281.892 369.142)"/><path fill="none" stroke="#202124" stroke-linecap="round" stroke-linejoin="round" stroke-width="1.5" d="M0 58.35c32.226 0 58.35-26.124 58.35-58.35S32.226-58.35 0-58.35-58.35-32.226-58.35 0-32.226 58.35 0 58.35z" style="display:block" transform="translate(281.97 369.12)"/><path fill="none" stroke="#202124" stroke-linecap="round" stroke-linejoin="round" stroke-width="1.5" d="M0 39.19c21.644 0 39.19-17.546 39.19-39.19S21.644-39.19 0-39.19-39.19-21.644-39.19 0-21.644 39.19 0 39.19z" style="display:block" transform="translate(281.97 369.12)"/><path fill="none" stroke="#202124" stroke-linecap="round" stroke-linejoin="round" stroke-width="3" d="M-9.075 12.595h12.51a5.64 5.64 0 0 0 5.64-5.64v-1.2a5.64 5.64 0 0 0-5.64-5.64h-6.87a5.64 5.64 0 0 1-5.64-5.64v-1.43a5.64 5.64 0 0 1 5.64-5.64h12.51" style="display:block" transform="translate(281.965 369.124)"/><path fill="none" stroke="#202124" stroke-linecap="round" stroke-linejoin="round" stroke-width="3" d="M0-3.455v6.91" style="display:block" transform="translate(277.8 353.074)"/><path fill="none" stroke="#202124" stroke-linecap="round" stroke-linejoin="round" stroke-width="3" d="M0-3.455v6.91" style="display:block" transform="translate(286.15 353.074)"/><path fill="none" stroke="#202124" stroke-linecap="round" stroke-linejoin="round" stroke-width="3" d="M0-3.45v6.9" style="display:block" transform="translate(277.8 385.169)"/><path fill="none" stroke="#202124" stroke-linecap="round" stroke-linejoin="round" stroke-width="3" d="M0-3.45v6.9" style="display:block" transform="translate(286.15 385.169)"/></g></g></g><g style="display:block"><path fill="#202124" d="M338.59 454.91H215.41c-16.491 0-29.86 13.367-29.86 29.855s13.369 29.855 29.86 29.855h123.18c16.491 0 29.86-13.367 29.86-29.855s-13.369-29.855-29.86-29.855z"/><path fill="none" stroke="#202124" stroke-linecap="round" stroke-linejoin="round" stroke-width="1.5" d="M338.59 454.91H215.41c-16.491 0-29.86 13.367-29.86 29.855s13.369 29.855 29.86 29.855h123.18c16.491 0 29.86-13.367 29.86-29.855s-13.369-29.855-29.86-29.855z"/></g><g style="display:block"><path fill="#1FB254" d="M338.59 448.29H215.41c-16.491 0-29.86 13.367-29.86 29.855S198.919 508 215.41 508h123.18c16.491 0 29.86-13.367 29.86-29.855s-13.369-29.855-29.86-29.855z"/><path fill="none" stroke="#202124" stroke-linecap="round" stroke-linejoin="round" stroke-width="1.5" d="M338.59 448.29H215.41c-16.491 0-29.86 13.367-29.86 29.855S198.919 508 215.41 508h123.18c16.491 0 29.86-13.367 29.86-29.855s-13.369-29.855-29.86-29.855z"/></g><g mask="url(#o)" style="display:block"><path fill="#000111" d="m272.45 517 11.613 52.522.022.005c.836 3.79-4.265 5.957-7.718 3.277l-12.727-9.86-.233 21.222c-.037 3.004-3.336 4.942-6.787 3.999l-15.35-4.21c-3.454-.953-5.301-4.302-3.799-6.902l10.623-18.37-15.976 1.986c-4.342.544-7.62-3.912-4.971-6.744l36.77-39.263c2.475-2.642 7.75-1.198 8.532 2.337z"/><path fill="none" stroke="#202124" stroke-linecap="round" stroke-linejoin="round" stroke-width="1.4999850000000001" d="m272.45 517 11.613 52.522.022.005c.836 3.79-4.265 5.957-7.718 3.277l-12.727-9.86-.233 21.222c-.037 3.004-3.336 4.942-6.787 3.999l-15.35-4.21c-3.454-.953-5.301-4.302-3.799-6.902l10.623-18.37-15.976 1.986c-4.342.544-7.62-3.912-4.971-6.744l36.77-39.263c2.475-2.642 7.75-1.198 8.532 2.337z"/></g><g style="display:block"><path fill="#FFF" d="M400.164 189.261h-251.19.011c-9.369 0-16.975 7.606-16.975 16.975v27.94h285.13v-27.94c0-9.369-7.607-16.975-16.976-16.975z"/><path fill="none" stroke="#202124" stroke-linecap="round" stroke-linejoin="round" stroke-width="1.5737400000000001" d="M400.164 189.261h-251.19.011c-9.369 0-16.975 7.606-16.975 16.975v27.94h285.13v-27.94c0-9.369-7.607-16.975-16.976-16.975z"/></g><g style="display:block"><path fill="#EA3323" d="M167.03 221.365a7.7 7.7 0 0 0 7.702-7.7 7.7 7.7 0 0 0-7.701-7.701 7.7 7.7 0 0 0-7.701 7.7 7.7 7.7 0 0 0 7.7 7.701z"/><path fill="none" stroke="#202124" stroke-linecap="round" stroke-linejoin="round" stroke-width="1.5737400000000001" d="M167.03 221.365a7.7 7.7 0 0 0 7.702-7.7 7.7 7.7 0 0 0-7.701-7.701 7.7 7.7 0 0 0-7.701 7.7 7.7 7.7 0 0 0 7.7 7.701z"/></g><g style="display:block"><path fill="#FFBB25" d="M190.784 221.365a7.7 7.7 0 0 0 7.7-7.7 7.7 7.7 0 0 0-7.7-7.701 7.7 7.7 0 0 0-7.701 7.7 7.7 7.7 0 0 0 7.7 7.701z"/><path fill="none" stroke="#202124" stroke-linecap="round" stroke-linejoin="round" stroke-width="1.5737400000000001" d="M190.784 221.365a7.7 7.7 0 0 0 7.7-7.7 7.7 7.7 0 0 0-7.7-7.701 7.7 7.7 0 0 0-7.701 7.7 7.7 7.7 0 0 0 7.7 7.701z"/></g><g style="display:block"><path fill="#1FB254" d="M214.547 221.365a7.7 7.7 0 0 0 7.701-7.7 7.7 7.7 0 0 0-7.7-7.701 7.7 7.7 0 0 0-7.702 7.7 7.7 7.7 0 0 0 7.701 7.701z"/><path fill="none" stroke="#202124" stroke-linecap="round" stroke-linejoin="round" stroke-width="1.5737400000000001" d="M214.547 221.365a7.7 7.7 0 0 0 7.701-7.7 7.7 7.7 0 0 0-7.7-7.701 7.7 7.7 0 0 0-7.702 7.7 7.7 7.7 0 0 0 7.701 7.701z"/></g><g style="display:block"><path fill="#1FB254" d="M416.93 234.175H131.79"/><path fill="none" stroke="#202124" stroke-linecap="round" stroke-linejoin="round" stroke-width="1.5737400000000001" d="M416.93 234.175H131.79"/></g><g style="display:block"><path fill="#FFF" d="m193.32 364.97-18.83-11.06c-13.59-7.98-20.57-23.74-17.37-39.17l4.44-21.38c.57-2.73-3.13-4.16-4.55-1.75l-11.06 18.83c-7.98 13.59-23.74 20.57-39.17 17.37l-21.38-4.44c-2.73-.57-4.16 3.13-1.75 4.55l18.83 11.06c13.59 7.98 20.57 23.74 17.37 39.17l-4.44 21.38c-.57 2.73 3.13 4.16 4.55 1.75l11.06-18.83c7.98-13.59 23.74-20.57 39.17-17.37l21.38 4.44c2.73.57 4.16-3.13 1.75-4.55z"/><path fill="none" stroke="#202124" stroke-linecap="round" stroke-linejoin="round" stroke-width="1.5" d="m193.32 364.97-18.83-11.06c-13.59-7.98-20.57-23.74-17.37-39.17l4.44-21.38c.57-2.73-3.13-4.16-4.55-1.75l-11.06 18.83c-7.98 13.59-23.74 20.57-39.17 17.37l-21.38-4.44c-2.73-.57-4.16 3.13-1.75 4.55l18.83 11.06c13.59 7.98 20.57 23.74 17.37 39.17l-4.44 21.38c-.57 2.73 3.13 4.16 4.55 1.75l11.06-18.83c7.98-13.59 23.74-20.57 39.17-17.37l21.38 4.44c2.73.57 4.16-3.13 1.75-4.55z"/></g><g style="display:block"><path fill="#FFF" d="m429.19 388.18-9.15 9.28c-6.61 6.7-16.75 8.45-25.21 4.34l-11.73-5.69c-1.5-.73-2.87 1.21-1.68 2.38l9.28 9.15c6.7 6.61 8.45 16.75 4.34 25.21l-5.69 11.73c-.73 1.5 1.21 2.87 2.38 1.68l9.15-9.28c6.61-6.7 16.75-8.45 25.21-4.34l11.73 5.69c1.5.73 2.87-1.21 1.68-2.38l-9.28-9.15c-6.7-6.61-8.45-16.75-4.34-25.21l5.69-11.73c.73-1.5-1.21-2.87-2.38-1.68z"/><path fill="none" stroke="#202124" stroke-linecap="round" stroke-linejoin="round" stroke-width="1.5" d="m429.19 388.18-9.15 9.28c-6.61 6.7-16.75 8.45-25.21 4.34l-11.73-5.69c-1.5-.73-2.87 1.21-1.68 2.38l9.28 9.15c6.7 6.61 8.45 16.75 4.34 25.21l-5.69 11.73c-.73 1.5 1.21 2.87 2.38 1.68l9.15-9.28c6.61-6.7 16.75-8.45 25.21-4.34l11.73 5.69c1.5.73 2.87-1.21 1.68-2.38l-9.28-9.15c-6.7-6.61-8.45-16.75-4.34-25.21l5.69-11.73c.73-1.5-1.21-2.87-2.38-1.68z"/></g><g mask="url(#p)" style="display:block"><path fill="#202124" d="M467.532 615.58a57.556 57.556 0 0 0 9.969-4.373c2.24-8.88-.981-18.957-9.841-24.477l-37.36-23.27c-12.16 9.52-18.203 23.134-14.17 35.248 5.61 16.864 28.64 24.417 51.402 16.872z"/><path fill="none" stroke="#202124" stroke-linecap="round" stroke-linejoin="round" stroke-width="1.5" d="M467.532 615.58a57.556 57.556 0 0 0 9.969-4.373c2.24-8.88-.981-18.957-9.841-24.477l-37.36-23.27c-12.16 9.52-18.203 23.134-14.17 35.248 5.61 16.864 28.64 24.417 51.402 16.872z"/></g><g style="display:block"><path fill="#FFF" d="M462.441 605.285c22.788-7.572 36.715-27.395 31.106-44.277-5.609-16.881-28.63-24.428-51.418-16.857-22.788 7.572-36.715 27.395-31.106 44.277 5.609 16.881 28.63 24.428 51.418 16.857z"/><path fill="none" stroke="#202124" stroke-linecap="round" stroke-linejoin="round" stroke-width="1.5" d="M462.441 605.285c22.788-7.572 36.715-27.395 31.106-44.277-5.609-16.881-28.63-24.428-51.418-16.857-22.788 7.572-36.715 27.395-31.106 44.277 5.609 16.881 28.63 24.428 51.418 16.857z"/></g><g style="display:block"><path fill="#FFF" d="M441.49 584.841c1.36-4.8.05-8.72-3.9-11.75"/><path fill="none" stroke="#202124" stroke-linecap="round" stroke-linejoin="round" stroke-width="3" d="M441.49 584.841c1.36-4.8.05-8.72-3.9-11.75"/></g><g style="display:block"><path fill="#FFF" d="M449.36 585.921c2.05-7.49.01-13.63-6.12-18.41"/><path fill="none" stroke="#202124" stroke-linecap="round" stroke-linejoin="round" stroke-width="3" d="M449.36 585.921c2.05-7.49.01-13.63-6.12-18.41"/></g><g style="display:block"><path fill="#FFF" d="M457.21 587.02c2.75-10.19-.03-18.55-8.33-25.08"/><path fill="none" stroke="#202124" stroke-linecap="round" stroke-linejoin="round" stroke-width="3" d="M457.21 587.02c2.75-10.19-.03-18.55-8.33-25.08"/></g><g style="display:block"><path fill="#FFF" d="M465.079 588.1c3.44-12.89-.08-23.47-10.55-31.74"/><path fill="none" stroke="#202124" stroke-linecap="round" stroke-linejoin="round" stroke-width="3" d="M465.079 588.1c3.44-12.89-.08-23.47-10.55-31.74"/></g><g style="display:block"><path fill="#FFF" d="m263.5 501.83.44 53.79.02.01c.03 3.88-5.41 4.94-8.23 1.6l-10.4-12.29-4.64 20.71c-.66 2.93-4.29 4.14-7.47 2.5l-14.14-7.31c-3.18-1.65-4.29-5.31-2.28-7.54l14.21-15.76-16.04-1.38c-4.36-.37-6.64-5.41-3.46-7.63l44.13-30.76c2.97-2.07 7.83.44 7.86 4.06z"/><path fill="none" stroke="#202124" stroke-linecap="round" stroke-linejoin="round" stroke-width="1.4999850000000001" d="m263.5 501.83.44 53.79.02.01c.03 3.88-5.41 4.94-8.23 1.6l-10.4-12.29-4.64 20.71c-.66 2.93-4.29 4.14-7.47 2.5l-14.14-7.31c-3.18-1.65-4.29-5.31-2.28-7.54l14.21-15.76-16.04-1.38c-4.36-.37-6.64-5.41-3.46-7.63l44.13-30.76c2.97-2.07 7.83.44 7.86 4.06z"/></g></g></svg>